<svg width="32" height="32" viewBox="0 0 32 32" fill="none" xmlns="http://www.w3.org/2000/svg">
<path id="Vector" d="M15.9957 10.6644C13.0578 10.6644 10.6602 13.062 10.6602 15.9999C10.6602 18.9379 13.0578 21.3355 15.9957 21.3355C18.9336 21.3355 21.3312 18.9379 21.3312 15.9999C21.3312 13.062 18.9336 10.6644 15.9957 10.6644ZM31.9982 15.9999C31.9982 13.7905 32.0182 11.6011 31.8941 9.39561C31.7701 6.83392 31.1857 4.56043 29.3125 2.6872C27.4352 0.809966 25.1657 0.229585 22.604 0.105503C20.3946 -0.0185785 18.2052 0.0014347 15.9997 0.0014347C13.7902 0.0014347 11.6008 -0.0185785 9.39536 0.105503C6.83368 0.229585 4.56019 0.813968 2.68696 2.6872C0.809722 4.56443 0.22934 6.83392 0.105259 9.39561C-0.0188226 11.6051 0.00119056 13.7945 0.00119056 15.9999C0.00119056 18.2054 -0.0188226 20.3988 0.105259 22.6043C0.22934 25.166 0.813724 27.4395 2.68696 29.3127C4.56419 31.1899 6.83368 31.7703 9.39536 31.8944C11.6048 32.0185 13.7943 31.9985 15.9997 31.9985C18.2092 31.9985 20.3986 32.0185 22.604 31.8944C25.1657 31.7703 27.4392 31.1859 29.3125 29.3127C31.1897 27.4355 31.7701 25.166 31.8941 22.6043C32.0222 20.3988 31.9982 18.2094 31.9982 15.9999ZM15.9957 24.2093C11.4527 24.2093 7.78631 20.5429 7.78631 15.9999C7.78631 11.457 11.4527 7.79055 15.9957 7.79055C20.5387 7.79055 24.2051 11.457 24.2051 15.9999C24.2051 20.5429 20.5387 24.2093 15.9957 24.2093ZM24.5413 9.37159C23.4806 9.37159 22.6241 8.51503 22.6241 7.45433C22.6241 6.39363 23.4806 5.53707 24.5413 5.53707C25.602 5.53707 26.4586 6.39363 26.4586 7.45433C26.4589 7.7062 26.4095 7.95565 26.3133 8.18841C26.217 8.42116 26.0758 8.63265 25.8977 8.81074C25.7196 8.98884 25.5082 9.13005 25.2754 9.22629C25.0426 9.32253 24.7932 9.37191 24.5413 9.37159Z" fill="white"/>
</svg>
