<svg width="32" height="32" viewBox="0 0 32 32" fill="none" xmlns="http://www.w3.org/2000/svg">
<path id="image 259 (Traced)" fill-rule="evenodd" clip-rule="evenodd" d="M6.53607 0.112731C4.50628 0.330924 3.16593 0.976457 1.87047 2.35976C1.37496 2.88899 1.18814 3.1613 0.855648 3.8392C0.364099 4.84158 0.178178 5.5801 0.0632591 6.98725C-0.0539795 8.42318 0.00535201 25.1603 0.130222 25.8614C0.308885 26.8646 0.460315 27.342 0.856098 28.1498C1.18844 28.8283 1.37451 29.0996 1.87047 29.6293C3.19242 31.0408 4.4869 31.6511 6.6483 31.8815C8.1299 32.0395 23.871 32.0395 25.3526 31.8815C27.3481 31.6687 28.5731 31.1435 29.7939 29.9772C31.1559 28.676 31.735 27.3305 31.9376 24.9974C32.0537 23.6588 31.9941 6.82049 31.8707 6.12764C31.692 5.12436 31.5406 4.64701 31.1448 3.8392C30.8125 3.16077 30.6264 2.88944 30.1304 2.35976C28.8079 0.947604 27.4961 0.328831 25.3526 0.106228C23.952 -0.0392335 7.89849 -0.0336274 6.53607 0.112731ZM12.9522 7.59138L13.2696 8.23295L13.5689 8.18511C14.7333 7.99898 17.1982 7.99936 18.45 8.18578L18.7313 8.22764L18.94 7.75695C19.0549 7.49809 19.2064 7.21195 19.2767 7.12113L19.4046 6.95593L20.2279 7.13115C21.2656 7.35196 21.9549 7.55086 22.9959 7.92991C24.2745 8.39553 24.2939 8.40853 24.7629 9.1176C27.028 12.5421 28.1932 16.6717 28.0106 20.629C27.9831 21.2251 27.9443 21.7811 27.9245 21.8646C27.8568 22.1491 25.8144 23.399 24.3393 24.0588C23.4493 24.4567 22.0488 24.9652 21.8476 24.9632C21.6937 24.9618 20.4085 23.0022 20.5009 22.9098C20.5172 22.8935 20.816 22.7584 21.1647 22.6097C21.5134 22.4608 21.9479 22.2521 22.1301 22.1458L22.4616 21.9524L22.2647 21.7833L22.068 21.6142L21.3348 21.9015C20.3571 22.2847 19.437 22.5465 18.3946 22.738C17.1638 22.9641 14.8371 22.9641 13.6063 22.738C12.4087 22.5179 11.3314 22.1921 10.0151 21.6517C9.9514 21.6255 9.8076 21.6834 9.68281 21.7856L9.46269 21.9655L10.1317 22.2908C10.4996 22.4697 10.9438 22.6732 11.1186 22.7432C11.2935 22.8131 11.4366 22.916 11.4366 22.9719C11.4366 23.0822 10.7977 24.1581 10.4118 24.6979L10.1726 25.0324L9.55143 24.8204C8.53758 24.4745 7.79158 24.1582 6.79553 23.6523C5.58327 23.0364 4.1289 22.0837 4.07773 21.872C3.97523 21.4478 3.94545 19.5228 4.02565 18.5053C4.2953 15.0863 5.32755 12.0635 7.23666 9.10213L7.65623 8.45129L8.40545 8.15693C9.6546 7.66613 11.825 7.04167 12.5781 6.95631C12.6093 6.9528 12.7776 7.23856 12.9522 7.59138ZM11.2393 14.7141C10.0823 15.2537 9.57747 16.7058 10.1247 17.9202C10.5127 18.7813 11.2352 19.2471 12.1011 19.1943C12.9121 19.1449 13.4811 18.7611 13.8876 17.9893C14.0688 17.6455 14.0918 17.5213 14.0911 16.8915C14.0904 16.2905 14.0622 16.1244 13.9076 15.8108C13.6863 15.3622 13.2935 14.956 12.8931 14.7618C12.4602 14.5519 11.6379 14.5282 11.2393 14.7141ZM19.3027 14.6699C18.9191 14.7924 18.2915 15.4085 18.088 15.8622C17.839 16.4173 17.8358 17.3655 18.081 17.9006C18.7454 19.3502 20.4998 19.658 21.517 18.5035C21.9221 18.0438 22.0968 17.532 22.0928 16.8168C22.0891 16.1545 21.9255 15.7283 21.4893 15.2449C20.9559 14.6537 20.0769 14.4226 19.3027 14.6699Z" fill="white"/>
</svg>
