<svg width="32" height="32" viewBox="0 0 32 32" fill="none" xmlns="http://www.w3.org/2000/svg">
<path id="image 260 (Traced)" fill-rule="evenodd" clip-rule="evenodd" d="M14.4795 0.0388521C9.47214 0.559498 5.08371 3.28434 2.41785 7.52817C-1.36291 13.5468 -0.649141 21.5376 4.13429 26.7438C6.79289 29.6373 10.0854 31.3582 14.0406 31.9216C14.7841 32.0275 17.243 32.0257 18.0151 31.9188C21.9104 31.3793 25.2002 29.6622 27.8543 26.7834C30.0364 24.4165 31.4365 21.3848 31.9214 17.9764C32.0262 17.2397 32.0262 14.7679 31.9214 14.0312C31.4799 10.9281 30.2793 8.12258 28.4376 5.8902C25.8227 2.72074 22.2894 0.72357 18.2341 0.122767C17.4663 0.00898105 15.2442 -0.0406162 14.4795 0.0388521ZM23.1497 9.8377C23.5158 10.1886 23.5202 10.4287 23.2044 12.7787C22.9234 14.8704 21.9494 20.7663 21.6062 22.4539C21.4789 23.0795 21.2376 23.604 20.9681 23.8408C20.7549 24.028 20.7322 24.0335 20.2733 24.006C19.9492 23.9866 19.7125 23.9332 19.5265 23.8375C19.1019 23.619 14.2577 20.3345 13.9864 20.0811C13.6932 19.8072 13.5541 19.5093 13.6103 19.2753C13.6886 18.9489 14.0754 18.5209 15.4635 17.2245C17.1677 15.6328 18.9816 13.8608 19.1147 13.6577C19.2457 13.4575 19.1423 13.2484 18.9121 13.2484C18.7022 13.2484 18.8379 13.1626 15.0108 15.7135C13.2035 16.918 11.5699 17.9803 11.3806 18.074C10.8163 18.3533 10.4176 18.4076 9.76206 18.2943C9.21096 18.1992 7.50265 17.7099 6.79496 17.4445C6.04771 17.1643 5.85593 16.7865 6.26395 16.3986C6.52933 16.1462 6.56876 16.1273 9.38252 14.9049C16.9279 11.6269 20.7315 10.0579 21.9825 9.7075C22.4753 9.56948 22.9219 9.61927 23.1497 9.8377Z" fill="white"/>
</svg>
